<mxfile host="app.diagrams.net" modified="2021-01-12T12:20:21.957Z" agent="5.0 (Windows NT 10.0; Win64; x64) AppleWebKit/537.36 (KHTML, like Gecko) Chrome/87.0.4280.88 Safari/537.36" etag="MQ7kCocDXdqEntbtDG6Q" version="14.1.9" type="github">
  <diagram name="Page-1" id="d9b1e647-80fa-b4a2-5024-87a742678bcc">
    <mxGraphModel dx="1422" dy="762" grid="1" gridSize="10" guides="1" tooltips="1" connect="1" arrows="1" fold="1" page="1" pageScale="1" pageWidth="1100" pageHeight="850" background="#ffffff" math="0" shadow="0">
      <root>
        <mxCell id="0" />
        <mxCell id="1" parent="0" />
        <mxCell id="57fe6abec08f04cb-1" value="收获与体会" style="shape=step;whiteSpace=wrap;html=1;fontSize=28;fillColor=#0080FF;fontColor=#FFFFFF;strokeColor=none;" parent="1" vertex="1">
          <mxGeometry x="90" y="180" width="230" height="80" as="geometry" />
        </mxCell>
        <mxCell id="57fe6abec08f04cb-2" value="优点" style="shape=step;whiteSpace=wrap;html=1;fontSize=28;fillColor=#0075E8;fontColor=#FFFFFF;strokeColor=none;" parent="1" vertex="1">
          <mxGeometry x="385" y="180" width="260" height="80" as="geometry" />
        </mxCell>
        <mxCell id="57fe6abec08f04cb-3" value="待改进之处" style="shape=step;whiteSpace=wrap;html=1;fontSize=28;fillColor=#0067CC;fontColor=#FFFFFF;strokeColor=none;" parent="1" vertex="1">
          <mxGeometry x="720" y="180" width="290" height="80" as="geometry" />
        </mxCell>
        <mxCell id="ab-afYEbeOzOSL7PBuV0-7" value="&lt;ol&gt;&lt;li style=&quot;text-align: left ; font-size: 16px&quot;&gt;善于学习,勤于提问&lt;/li&gt;&lt;li style=&quot;font-size: 16px&quot;&gt;工作认真对每一行代码负责&lt;/li&gt;&lt;/ol&gt;" style="text;html=1;align=center;verticalAlign=middle;resizable=0;points=[];autosize=1;fillColor=#f5f5f5;strokeColor=#666666;fontColor=#333333;dashed=1;" vertex="1" parent="1">
          <mxGeometry x="395" y="365" width="250" height="60" as="geometry" />
        </mxCell>
        <mxCell id="ab-afYEbeOzOSL7PBuV0-9" value="&lt;ol&gt;&lt;li&gt;&lt;font style=&quot;font-size: 16px&quot;&gt;良好的团队合作能够提升工作效率&lt;/font&gt;&lt;/li&gt;&lt;li&gt;&lt;font style=&quot;font-size: 16px&quot;&gt;遇到问题首先查阅现有资料勤于总结&lt;/font&gt;&lt;/li&gt;&lt;/ol&gt;" style="text;html=1;align=left;verticalAlign=middle;resizable=0;points=[];autosize=1;fillColor=#f5f5f5;strokeColor=#666666;fontColor=#333333;dashed=1;" vertex="1" parent="1">
          <mxGeometry x="40" y="365" width="310" height="60" as="geometry" />
        </mxCell>
        <mxCell id="ab-afYEbeOzOSL7PBuV0-11" value="&lt;ol&gt;&lt;li&gt;&lt;span style=&quot;font-size: 16px&quot;&gt;提高可信编码能力,达到每一行代码可信&lt;/span&gt;&lt;/li&gt;&lt;li&gt;&lt;span style=&quot;font-size: 16px&quot;&gt;对业务应该有更深更广的了解&lt;/span&gt;&lt;/li&gt;&lt;/ol&gt;" style="text;html=1;align=left;verticalAlign=middle;resizable=0;points=[];autosize=1;fillColor=#f5f5f5;strokeColor=#666666;fontColor=#333333;dashed=1;" vertex="1" parent="1">
          <mxGeometry x="720" y="360" width="330" height="60" as="geometry" />
        </mxCell>
      </root>
    </mxGraphModel>
  </diagram>
</mxfile>
